

Release info:

General
Format                                   : Matroska
Format version                           : Version 2
File size                                : 689 MiB
Duration                                 : 2h 5mn
Overall bit rate                         : 765 Kbps
Movie name                               : Inkaar DVDScr Hindi [EngSub]

Video
ID                                       : 1
Format                                   : MPEG-4 Visual
Format profile                           : Advanced Simple@L5
Format settings, BVOP                    : Yes
Format settings, QPel                    : No
Format settings, GMC                     : No warppoints
Format settings, Matrix                  : Default (H.263)
Codec ID                                 : V_MS/VFW/FOURCC / XVID
Codec ID/Hint                            : XviD
Duration                                 : 2h 5mn
Bit rate                                 : 670 Kbps
Width                                    : 640 pixels
Height                                   : 256 pixels
Display aspect ratio                     : 2.500
Frame rate mode                          : Constant
Frame rate                               : 24.979 fps
Original frame rate                      : 24.975 fps
Color space                              : YUV
Chroma subsampling                       : 4:2:0
Bit depth                                : 8 bits
Scan type                                : Progressive
Compression mode                         : Lossy
Bits/(Pixel*Frame)                       : 0.164
Stream size                              : 604 MiB (88%)
Title                                    : Inkaar DVDScr Hindi [EngSub]
Language                                 : Hindi
Default                                  : Yes
Forced                                   : No

Audio
ID                                       : 2
Format                                   : MPEG Audio
Format version                           : Version 1
Format profile                           : Layer 3
Mode                                     : Joint stereo
Mode extension                           : MS Stereo
Muxing mode                              : Header stripping
Codec ID                                 : A_MPEG/L3
Codec ID/Hint                            : MP3
Duration                                 : 2h 5mn
Bit rate mode                            : Constant
Bit rate                                 : 80.0 Kbps
Channel(s)                               : 2 channels
Sampling rate                            : 32.0 KHz
Compression mode                         : Lossy
Stream size                              : 72.1 MiB (10%)
Title                                    : Inkaar DVDScr Hindi [EngSub]
Language                                 : Hindi
Default                                  : Yes
Forced                                   : No

Text
ID                                       : 3
Format                                   : UTF-8
Codec ID                                 : S_TEXT/UTF8
Codec ID/Info                            : UTF-8 Plain Text
Title                                    : Inkaar DVDScr Hindi [EngSub]
Language                                 : English
Default                                  : Yes
Forced                                   : No



Source:
credit to original movie ripper DDR (Thanks)

IMDB Info:

At one of India's leading ad agencies, the battle for the top job between Rahul (Arjun Rampal), a venerated advertising CEO, and Maya (Chitrangada Singh) his ambitious
Release Date
18 Jan 2013
Genre
Romance,Crime
Star Cast
Arjun Rampal.... Rahul Verma
Chitrangda Singh.... Maya Luthra
Gaurav Dwivedi
Sandeep Sanchdev
Deepti Naval
Vipin Sharma
Shivani Tanksale
Mohan Kapoor
Rehana Sultan
Story / Writers
Manoj Tyagi

 
http://www.imdb.com/title/tt2094854/

Screen Shot:
 
http://www.shotpix.com/images/38807992808343152346.png 
http://www.shotpix.com/images/72086059531621583596.png 
http://www.shotpix.com/images/56001133488128998010.png 
http://www.shotpix.com/images/17125176975307684987.png